<svg xmlns="http://www.w3.org/2000/svg" version="1.1" xmlns:xlink="http://www.w3.org/1999/xlink" xmlns:svgjs="http://svgjs.dev/svgjs" width="1500" height="651" viewBox="0 0 1500 651"><g transform="matrix(1,0,0,1,-0.9090909090909918,-0.20122075847245924)"><svg viewBox="0 0 396 172" data-background-color="#fffff5" preserveAspectRatio="xMidYMid meet" height="651" width="1500" xmlns="http://www.w3.org/2000/svg" xmlns:xlink="http://www.w3.org/1999/xlink"><g id="tight-bounds" transform="matrix(1,0,0,1,0.2400000000000091,0.053164317138651995)"><svg viewBox="0 0 395.52 171.8936713657227" height="171.8936713657227" width="395.52"><g><svg viewBox="0 0 395.52 171.8936713657227" height="171.8936713657227" width="395.52"><g transform="matrix(1,0,0,1,0,106.2371849360993)"><svg viewBox="0 0 395.52 65.65648642962338" height="65.65648642962338" width="395.52"><g id="textblocktransform"><svg viewBox="0 0 395.52 65.65648642962338" height="65.65648642962338" width="395.52" id="textblock"><g><svg viewBox="0 0 395.52 65.65648642962338" height="65.65648642962338" width="395.52"><g transform="matrix(1,0,0,1,0,0)"><svg width="395.52" viewBox="1.75 -38.6 237.63 39.45" height="65.65648642962338" data-palette-color="#091627"><path d="M21.7 0.85Q11.7 0.85 6.73-4.4 1.75-9.65 1.75-18.85L1.75-18.85Q1.75-24.45 4-28.93 6.25-33.4 10.75-36 15.25-38.6 21.7-38.6L21.7-38.6Q24.35-38.6 26.43-38.18 28.5-37.75 30.9-36.75L30.9-36.75 30.9-28.95Q26.65-31 21.95-31L21.95-31Q18.7-31 16.18-29.43 13.65-27.85 12.25-25.1 10.85-22.35 10.85-18.9L10.85-18.9Q10.85-13.4 13.73-10.08 16.6-6.75 21.7-6.75L21.7-6.75Q24.1-6.75 26.4-7.48 28.7-8.2 31.25-9.55L31.25-9.55 33.9-2.2Q31-0.7 27.8 0.08 24.6 0.85 21.7 0.85L21.7 0.85ZM52.55 0.85Q47.65 0.85 44.25-1.13 40.85-3.1 39.12-6.5 37.4-9.9 37.4-14.15L37.4-14.15Q37.4-18.35 39.12-21.75 40.85-25.15 44.25-27.13 47.65-29.1 52.55-29.1L52.55-29.1Q57.4-29.1 60.8-27.13 64.2-25.15 65.9-21.75 67.6-18.35 67.6-14.15L67.6-14.15Q67.6-9.9 65.9-6.5 64.2-3.1 60.8-1.13 57.4 0.85 52.55 0.85L52.55 0.85ZM52.55-6.55Q55.5-6.55 57.02-8.5 58.55-10.45 58.55-14.15L58.55-14.15Q58.55-17.8 57.02-19.75 55.5-21.7 52.55-21.7L52.55-21.7Q49.55-21.7 48-19.75 46.45-17.8 46.45-14.15L46.45-14.15Q46.45-10.45 48-8.5 49.55-6.55 52.55-6.55L52.55-6.55ZM89.44-28.9Q95.09-28.9 97.89-26.05 100.69-23.2 100.69-17L100.69-17 100.69 0 92 0 92-17Q92-19.05 90.97-20.13 89.94-21.2 87.5-21.2L87.5-21.2Q84.59-21.2 81.55-18.8L81.55-18.8 81.55 0 72.84 0 72.84-28.3 81.55-28.3 81.55-26.05Q83.39-27.5 85.32-28.2 87.25-28.9 89.44-28.9L89.44-28.9ZM124.04-28.9Q129.69-28.9 132.49-26.05 135.29-23.2 135.29-17L135.29-17 135.29 0 126.59 0 126.59-17Q126.59-19.05 125.57-20.13 124.54-21.2 122.09-21.2L122.09-21.2Q119.19-21.2 116.14-18.8L116.14-18.8 116.14 0 107.44 0 107.44-28.3 116.14-28.3 116.14-26.05Q117.99-27.5 119.92-28.2 121.84-28.9 124.04-28.9L124.04-28.9ZM149.64-11.45Q150.19-9.05 151.91-7.7 153.64-6.35 156.99-6.35L156.99-6.35Q158.94-6.35 160.72-6.83 162.49-7.3 164.79-8.45L164.79-8.45 167.04-1.75Q164.44-0.3 161.89 0.28 159.34 0.85 155.79 0.85L155.79 0.85Q150.84 0.85 147.36-1.03 143.89-2.9 142.09-6.3 140.29-9.7 140.29-14.2L140.29-14.2Q140.29-18.9 142.14-22.28 143.99-25.65 147.14-27.38 150.29-29.1 154.19-29.1L154.19-29.1Q160.44-29.1 163.99-25.48 167.54-21.85 167.54-14.9L167.54-14.9 167.54-11.45 149.64-11.45ZM154.19-21.9Q152.39-21.9 151.26-21 150.14-20.1 149.69-17.9L149.69-17.9 158.39-17.9Q158.19-20 157.16-20.95 156.14-21.9 154.19-21.9L154.19-21.9ZM185.19 0.85Q178.19 0.8 174.49-3.13 170.79-7.05 170.79-14.2L170.79-14.2Q170.79-21.3 174.49-25.18 178.19-29.05 185.19-29.1L185.19-29.1Q187.74-29.1 189.54-28.8 191.34-28.5 193.29-27.7L193.29-27.7 193.29-19.8Q191.44-20.7 189.81-21.05 188.19-21.4 186.19-21.4L186.19-21.4Q182.84-21.35 181.34-19.55 179.84-17.75 179.84-14.25L179.84-14.25Q179.84-10.65 181.29-8.75 182.74-6.85 185.94-6.85L185.94-6.85Q187.74-6.85 189.41-7.4 191.09-7.95 192.89-9.1L192.89-9.1 195.34-1.9Q190.74 0.85 185.19 0.85L185.19 0.85ZM216.84-19.6L210.44-19.6 210.44-10.05Q210.44-8.4 210.99-7.73 211.53-7.05 212.99-7.05L212.99-7.05Q214.64-7.05 215.94-7.45L215.94-7.45 215.94-0.05Q214.24 0.3 213.06 0.48 211.89 0.65 210.53 0.65L210.53 0.65Q206.09 0.65 203.91-1.3 201.74-3.25 201.74-6.9L201.74-6.9 201.74-19.6 197.84-19.6 197.84-27.3 201.74-27.3 201.74-36.8 210.44-36.8 210.44-27.3 216.84-27.3 216.84-19.6ZM238.23-28.9L239.38-28.9 239.38-21.2 238.23-21.2Q234.38-21.2 230.53-18.45L230.53-18.45 230.53 0 221.83 0 221.83-28.3 230.53-28.3 230.53-25.8Q232.38-27.35 234.26-28.13 236.13-28.9 238.23-28.9L238.23-28.9Z" opacity="1" transform="matrix(1,0,0,1,0,0)" fill="#091627" class="wordmark-text-0" data-fill-palette-color="primary" id="text-0"></path></svg></g></svg></g></svg></g></svg></g><g transform="matrix(1,0,0,1,82.69017598737375,0)"><svg viewBox="0 0 230.13964802525248 90.73726424573952" height="90.73726424573952" width="230.13964802525248"><g><svg xmlns="http://www.w3.org/2000/svg" xmlns:xlink="http://www.w3.org/1999/xlink" version="1.1" x="0" y="0" viewBox="8.032073384665733 32.91459615782493 85.9445672983013 33.885403842175066" enable-background="new 0 0 100 100" xml:space="preserve" height="90.73726424573952" width="230.13964802525248" class="icon-icon-0" data-fill-palette-color="accent" id="icon-0"><path d="M93.9 43.4C93.5 41.9 91.5 41.1 90.3 40.6 88.3 39.8 86.3 39.3 84.2 38.9 79.7 38 75.1 37.5 70.5 37.1 68.3 35.6 65.4 35.4 63.1 36.6 62.6 36.6 62.1 36.5 61.5 36.5 59.1 32.4 53.1 32.1 50.3 36 47.8 31.6 41.2 32 39.2 36.6 33.1 36.9 27 37.4 21 38.3 18.9 38.6 4.6 41 8.8 45.2 9.8 47.1 12.5 48.2 14.4 49.1 17 50.4 19.6 51.7 22 53.2 26.1 55.8 29.7 59.6 29.6 64.7V64.8C29.6 65.7 32.9 66 33.6 66 35.5 66.3 37.4 66.4 39.3 66.5 43.5 66.8 47.6 66.8 51.8 66.8 55.8 66.8 59.8 66.7 63.7 66.4 65.6 66.3 67.6 66.1 69.5 65.7 69.9 65.6 72.3 65.4 72.3 64.7V64.6C72.3 59 76.5 55.2 80.9 52.6 83.2 51.2 85.6 50.1 88 48.9 89.7 48 93 46.7 93.4 44.6 93.9 44.4 94.1 44 93.9 43.4M50.7 37.3C52.8 33.3 59.1 33.2 60.9 37.5L61.2 38.1C60 39.4 59.3 41 59.3 42.9 58.2 42.7 57 42.8 56 43.2 54.9 40.9 52.7 39.3 50.1 39.1 50.2 38.5 50.4 37.9 50.7 37.3 50.9 37 50.4 37.9 50.7 37.3M39.9 37.6C41.3 33.1 47.8 32.7 49.7 37.1 49.7 37.2 49.6 37.3 49.6 37.4 49.4 38 49.2 38.6 49.1 39.2 46.9 39.3 44.9 40.5 43.7 42.3 42.7 41.9 41.6 41.8 40.5 42 39.6 40.6 39.4 39 39.9 37.6M36.6 37.8C37.4 37.8 38.1 37.7 38.9 37.7 38.8 38 38.8 38.3 38.7 38.6 38 38.2 37.3 37.9 36.6 37.8M21.7 48.2C18.1 47.6 14.4 47.1 11.1 45.6 10.3 45.2 8.5 44.4 9.2 43.3 9.7 42.5 10.7 42.1 11.5 41.7 14.5 40.4 17.9 39.8 21.1 39.3 25.2 38.6 29.3 38.2 33.4 37.9 30.6 38.8 28.8 41.5 28.9 44.4 26.3 44.1 23.8 45.8 23.2 48.3 22.7 48.4 22.2 48.3 21.7 48.2M24.3 48.6C25.4 44.1 32.3 44.8 32.4 49.5 29.4 49.2 26.7 48.9 24.3 48.6 24.3 48.6 26.7 48.9 24.3 48.6M33.3 49.2C33.2 47.1 31.8 45.4 29.9 44.7 29.4 40 34.9 36.9 38.6 39.7 38.7 40.6 38.9 41.4 39.3 42.1 36.1 43.1 34.1 46.3 34.6 49.6 34.2 49.5 33.8 49.4 33.3 49.2 33.3 49.2 33.8 49.4 33.3 49.2M46.9 50.1S39.2 49.9 35.7 49.7C35 46.1 37.9 42.7 41.6 42.8 45.3 43 47.9 46.6 46.9 50.1 43 50 46.9 50.1 46.9 50.1M51 50.1H47.9C48.6 47.2 47.2 44 44.5 42.6 47.2 38.9 53 39.5 54.9 43.6 52.6 44.9 51.2 47.5 51.4 50.1zM64 49.8C60.4 50 56.6 50.1 52.5 50.1 52.2 46.9 54.7 43.9 57.9 43.8 61.3 43.7 64.1 46.5 64 49.8 60.4 50 64 49.7 64 49.8M66.4 49.1C65.9 49.1 65.4 49 65 48.9 64.7 46.2 62.8 43.9 60.3 43.1 60.2 40.9 61.4 38.7 63.4 37.6 67.6 35.3 73 38.5 72.6 43.5 69.9 43.8 67.9 46.2 68 48.9 67.4 49 66.9 49.1 66.4 49.1M77.1 48.7C74.6 49 71.9 49.3 69 49.5 68.4 47.1 70.2 44.6 72.7 44.5 75.1 44.3 77.2 46.3 77.1 48.7 74.7 49 77.1 48.6 77.1 48.7M92.9 44C92.6 44.8 91.5 45.3 90.8 45.6 89.5 46.2 88.1 46.6 86.7 46.9 83.9 47.6 81 48.1 78.1 48.5 78.1 45.9 76 43.7 73.5 43.5 73.6 41.6 73 39.7 71.7 38.2 76.1 38.7 80.5 39.1 84.8 40.1 86.6 40.5 88.4 40.9 90.1 41.6 91 41.9 92.5 42.5 92.9 43.4 93 43.6 93 43.8 92.9 44 92.9 44.1 93 43.9 92.9 44" fill="#dad603" data-fill-palette-color="accent"></path></svg></g></svg></g><g></g></svg></g><defs></defs></svg><rect width="395.52" height="171.8936713657227" fill="none" stroke="none" visibility="hidden"></rect></g></svg></g></svg>